<svg width="93" height="18" viewBox="0 0 93 18" fill="none" xmlns="http://www.w3.org/2000/svg">
<path d="M7.21871 18C2.84929 18 0 15.0806 0 10.7541C0 6.4314 2.89996 3.50806 7.21871 3.50806C11.5414 3.50806 14.414 6.33006 14.414 10.7268V11.136H1.90992C2.1126 14.4414 4.04201 16.2694 7.21871 16.2694C9.534 16.2694 11.2607 15.1508 11.9233 13.198H13.9073C13.194 16.1447 10.6527 18 7.21871 18ZM12.4067 9.66267C12.2001 6.94201 10.1421 5.188 7.21871 5.188C4.24859 5.188 2.18666 6.9654 1.95669 9.66267H12.4067Z" fill="white"/>
<path d="M30.3283 12.586C29.9463 15.79 27.2257 18 23.6904 18C19.3716 18 16.4717 15.0806 16.4717 10.7541C16.4717 6.4314 19.3716 3.50806 23.6904 3.50806C27.1477 3.50806 29.7398 5.5427 30.1997 8.46215H28.3677C27.7051 6.33006 26.0291 5.188 23.6397 5.188C20.463 5.188 18.2803 7.37077 18.2803 10.7541C18.2803 14.1373 20.389 16.2694 23.6904 16.2694C26.185 16.2694 28.0637 14.8194 28.5237 12.586H30.3283Z" fill="white"/>
<path d="M53.8324 16.094C54.265 16.094 54.7522 16.016 55.2823 15.8874V17.4387C54.4677 17.6414 53.731 17.7466 53.0684 17.7466C51.0376 17.7466 50.453 16.5734 50.453 14.1373V5.44132H48.1377V3.96795H50.453V0H52.2304V3.96795H55.3057V5.44132H52.2304V13.9034C52.2304 15.4547 52.2538 16.094 53.8324 16.094Z" fill="white"/>
<path d="M63.916 18C59.5426 18 56.6973 15.0806 56.6973 10.7541C56.6973 6.4314 59.5933 3.50806 63.916 3.50806C68.2386 3.50806 71.1113 6.33006 71.1113 10.7268V11.136H58.6033C58.806 14.4414 60.7393 16.2694 63.916 16.2694C66.2274 16.2694 67.958 15.1508 68.6167 13.198H70.6007C69.8874 16.1447 67.3499 18 63.916 18ZM69.1 9.66267C68.8973 6.94201 66.8393 5.188 63.916 5.188C60.9381 5.188 58.8839 6.9654 58.654 9.66267H69.1Z" fill="white"/>
<path d="M73.5938 3.99133H75.2971V6.48592C76.6184 4.65396 78.5751 3.71069 80.9645 3.71069C84.5504 3.71069 86.1758 5.31269 86.1758 8.77003V17.5167H84.4218V9.91598C84.4218 6.71589 83.6111 5.31269 80.6643 5.31269C77.6085 5.31269 75.3478 7.14465 75.3478 9.81074V17.5128H73.5938V3.99133Z" fill="white"/>
<path d="M89.7189 3.42615V3.66781H89.2083V5.39843H88.9432V3.66781H88.4365V3.42615H89.7189Z" fill="white"/>
<path d="M89.9883 3.42615H90.4014L91.0602 5.03983L91.7189 3.42615H92.1321V5.39843H91.8631V3.72238L91.1732 5.39843H90.9432L90.2494 3.72238V5.39843H89.9844V3.42615H89.9883Z" fill="white"/>
<path d="M87.9727 4.38889C87.9727 3.04805 89.064 1.95667 90.401 1.95667C91.7379 1.95667 92.8254 3.04805 92.8254 4.38889C92.8254 5.72583 91.7379 6.80941 90.401 6.80941C89.0601 6.80941 87.9727 5.72583 87.9727 4.38889ZM88.1091 4.38889C88.113 5.65177 89.1381 6.67299 90.3971 6.67299C91.66 6.67299 92.6812 5.65177 92.6851 4.38889C92.6812 3.1221 91.66 2.10088 90.3971 2.09699C89.1381 2.10088 88.113 3.1221 88.1091 4.38889Z" fill="white"/>
<path d="M39.7773 3.50806C35.4664 3.51195 32.5703 6.4353 32.5703 10.7541C32.5703 15.0728 35.4118 17.9922 39.7773 17.9961C44.139 17.9922 46.9843 15.0728 46.9843 10.7541C46.9843 6.4353 44.0883 3.51585 39.7773 3.50806ZM39.7773 16.2694C36.6084 16.2655 34.6829 14.4375 34.4802 11.136L34.527 9.66267C34.757 6.9693 36.815 5.1958 39.7773 5.1919C42.7397 5.1958 44.7977 6.97319 45.0277 9.66267L45.0744 11.136C44.8717 14.4336 42.9462 16.2655 39.7773 16.2694Z" fill="white"/>
</svg>
