<svg width="16" height="16" viewBox="0 0 16 16" fill="none" xmlns="http://www.w3.org/2000/svg">
<path fill-rule="evenodd" clip-rule="evenodd" d="M7.19231 2.07692C4.36716 2.07692 2.07692 4.36716 2.07692 7.19231C2.07692 10.0175 4.36716 12.3077 7.19231 12.3077C10.0175 12.3077 12.3077 10.0175 12.3077 7.19231C12.3077 4.36716 10.0175 2.07692 7.19231 2.07692ZM1 7.19231C1 3.77239 3.77239 1 7.19231 1C10.6122 1 13.3846 3.77239 13.3846 7.19231C13.3846 10.6122 10.6122 13.3846 7.19231 13.3846C3.77239 13.3846 1 10.6122 1 7.19231Z" fill="#444444"/>
<path fill-rule="evenodd" clip-rule="evenodd" d="M0.5 7.19231C0.5 3.49625 3.49625 0.5 7.19231 0.5C10.8884 0.5 13.8846 3.49625 13.8846 7.19231C13.8846 10.8884 10.8884 13.8846 7.19231 13.8846C3.49625 13.8846 0.5 10.8884 0.5 7.19231ZM7.19231 1.5C4.04853 1.5 1.5 4.04853 1.5 7.19231C1.5 10.3361 4.04853 12.8846 7.19231 12.8846C10.3361 12.8846 12.8846 10.3361 12.8846 7.19231C12.8846 4.04853 10.3361 1.5 7.19231 1.5ZM7.19231 2.57692C4.6433 2.57692 2.57692 4.6433 2.57692 7.19231C2.57692 9.74131 4.6433 11.8077 7.19231 11.8077C9.74131 11.8077 11.8077 9.74131 11.8077 7.19231C11.8077 4.6433 9.74131 2.57692 7.19231 2.57692ZM1.57692 7.19231C1.57692 4.09102 4.09102 1.57692 7.19231 1.57692C10.2936 1.57692 12.8077 4.09102 12.8077 7.19231C12.8077 10.2936 10.2936 12.8077 7.19231 12.8077C4.09102 12.8077 1.57692 10.2936 1.57692 7.19231Z" fill="#444444"/>
<path fill-rule="evenodd" clip-rule="evenodd" d="M10.8101 10.8097C11.0203 10.5994 11.3613 10.5994 11.5716 10.8097L14.8427 14.0808C15.053 14.2911 15.053 14.6321 14.8427 14.8423C14.6324 15.0526 14.2915 15.0526 14.0812 14.8423L10.8101 11.5712C10.5998 11.3609 10.5998 11.02 10.8101 10.8097Z" fill="#444444"/>
<path fill-rule="evenodd" clip-rule="evenodd" d="M10.4565 10.4561C10.862 10.0506 11.5196 10.0506 11.9251 10.4561L15.1963 13.7273C15.6018 14.1328 15.6018 14.7904 15.1963 15.1959C14.7907 15.6014 14.1332 15.6014 13.7277 15.1959L10.4565 11.9247C10.051 11.5192 10.051 10.8617 10.4565 10.4561ZM11.218 11.1632C11.203 11.1482 11.1786 11.1482 11.1636 11.1632C11.1486 11.1783 11.1486 11.2026 11.1636 11.2176L14.4348 14.4888C14.4498 14.5038 14.4741 14.5038 14.4892 14.4888L14.8427 14.8423L14.4892 14.4888C14.5042 14.4738 14.5042 14.4494 14.4892 14.4344L11.218 11.1632Z" fill="#444444"/>
</svg>
