<svg width="16" height="16" viewBox="0 0 16 16" fill="none" xmlns="http://www.w3.org/2000/svg">
<path d="M8 16C3.58172 16 -5.4282e-07 12.4183 -3.49691e-07 8C-1.56562e-07 3.58172 3.58172 -5.4282e-07 8 -3.49691e-07C12.4183 -1.56562e-07 16 3.58172 16 8C16 12.4183 12.4183 16 8 16Z" fill="#D9D9D9"/>
<path fill-rule="evenodd" clip-rule="evenodd" d="M11.7592 6.18337C12.0578 6.44727 12.082 6.8989 11.8133 7.19212L8.54058 10.7635C8.40265 10.9141 8.20617 11 8 11C7.79383 11 7.59734 10.9141 7.45942 10.7635L4.1867 7.19212C3.918 6.8989 3.94221 6.44727 4.24076 6.18337C4.53931 5.91947 4.99916 5.94324 5.26785 6.23646L8 9.21797L10.7321 6.23646C11.0008 5.94324 11.4607 5.91947 11.7592 6.18337Z" fill="white"/>
</svg>
